<?xml version="1.0" standalone="no"?>
<!DOCTYPE svg PUBLIC "-//W3C//DTD SVG 20010904//EN"
 "http://www.w3.org/TR/2001/REC-SVG-20010904/DTD/svg10.dtd">
<svg version="1.0" xmlns="http://www.w3.org/2000/svg"
 width="510.000000pt" height="510.000000pt" viewBox="0 0 510.000000 510.000000"
 preserveAspectRatio="xMidYMid meet">
<metadata>
Created by potrace 1.14, written by Peter Selinger 2001-2017
</metadata>
<g transform="translate(0.000000,510.000000) scale(0.100000,-0.100000)"
fill="#000000" stroke="none">
<path d="M2370 5094 c-19 -2 -78 -9 -130 -15 -300 -34 -647 -147 -913 -295
-844 -474 -1349 -1363 -1314 -2319 7 -200 28 -347 77 -541 49 -192 93 -312
185 -499 228 -466 584 -839 1054 -1106 110 -62 335 -161 339 -149 2 5 -9 46
-23 92 l-26 83 23 19 c13 10 72 43 132 73 239 120 462 285 558 411 24 33 33
36 244 88 237 59 414 97 651 139 l152 27 91 -37 c178 -72 371 -110 635 -125
114 -7 174 -14 182 -23 7 -7 20 -51 28 -96 8 -46 16 -86 19 -88 5 -5 138 141
211 232 150 186 316 481 400 709 51 138 110 376 131 531 23 157 26 521 6 660
-85 600 -340 1109 -759 1515 -391 381 -875 618 -1413 695 -108 16 -463 28
-540 19z m868 -434 c37 -23 71 -88 72 -137 0 -46 -25 -56 -165 -62 l-120 -6
-3 -38 c-3 -29 4 -50 27 -85 47 -74 64 -140 59 -229 -6 -132 -69 -231 -183
-291 -44 -24 -62 -27 -145 -27 -84 0 -102 3 -151 28 -75 36 -131 88 -174 162
-33 56 -37 59 -69 57 -19 -2 -37 1 -41 7 -12 21 -24 10 -64 -63 -39 -71 -99
-146 -117 -146 -5 0 -23 9 -41 20 -64 39 -94 150 -54 201 28 36 108 72 169 77
49 4 55 7 64 33 9 27 52 49 96 49 6 0 12 4 12 10 0 35 48 127 91 174 73 80
128 101 258 101 97 -1 106 1 128 23 21 20 31 23 63 18 36 -6 41 -4 54 22 18
36 79 90 120 108 44 19 76 17 114 -6z m168 -456 c-14 -38 -45 -217 -51 -299
-13 -162 22 -390 87 -575 95 -269 281 -522 442 -598 37 -18 66 -36 63 -38 -3
-3 -36 -6 -74 -6 -193 0 -428 121 -733 378 -342 289 -388 326 -460 378 -91 66
-194 118 -278 141 -47 14 -86 17 -164 13 l-102 -5 39 33 c79 67 203 99 355 91
160 -8 295 -53 461 -153 31 -19 61 -34 66 -34 6 0 13 37 16 83 16 206 88 357
256 540 60 64 90 84 77 51z m589 -53 c52 -23 107 -85 130 -145 47 -122 -27
-271 -158 -321 -66 -25 -160 -17 -222 19 -142 83 -162 281 -41 395 72 68 205
92 291 52z m-477 -266 c83 -91 174 -269 203 -400 7 -31 15 -58 19 -60 3 -2 29
27 57 64 78 105 181 161 293 161 55 0 184 -31 234 -57 l35 -18 -77 0 c-63 -1
-87 -6 -134 -29 -166 -80 -281 -272 -281 -471 -1 -103 17 -173 69 -277 19 -37
30 -68 25 -68 -22 0 -142 90 -207 155 -80 80 -110 126 -161 247 -47 113 -59
169 -88 428 -26 233 -44 330 -71 381 -15 29 -15 30 4 20 11 -6 47 -40 80 -76z
m-1221 -520 c111 -66 111 -233 -1 -305 l-39 -25 104 -7 c147 -9 246 -46 356
-134 59 -47 96 -85 114 -116 7 -13 4 -20 -11 -28 -39 -21 -895 -187 -990 -192
l-55 -3 1 32 c3 53 71 177 138 249 71 78 147 131 237 164 l64 23 -54 15 c-137
39 -184 188 -94 300 44 54 160 67 230 27z m-1087 -281 c274 -64 461 -309 463
-609 1 -108 -13 -165 -58 -226 -65 -90 -206 -128 -310 -85 -49 21 -110 78
-138 131 -29 53 -30 173 -3 225 26 50 74 98 121 122 22 11 41 22 43 23 17 15
-108 122 -176 151 -46 19 -160 18 -219 -2 -107 -37 -185 -117 -225 -234 -18
-52 -22 -86 -22 -170 1 -133 13 -176 80 -276 67 -101 200 -229 410 -395 458
-361 459 -362 470 -460 10 -88 -15 -160 -80 -224 -42 -43 -62 -55 -105 -64
-71 -15 -165 -14 -205 3 -46 19 -113 88 -137 139 -40 90 -17 219 54 303 15 18
27 35 27 38 0 3 -96 69 -212 147 -364 242 -454 323 -533 484 -54 109 -70 196
-62 340 13 225 120 428 292 550 73 52 119 74 195 91 78 18 252 17 330 -2z
m3290 -355 c0 -6 -21 -36 -46 -66 -61 -76 -156 -222 -239 -368 -154 -270 -286
-437 -415 -525 -113 -77 -319 -162 -427 -177 -65 -9 -56 16 32 99 168 157 287
393 390 776 l42 157 74 17 c117 27 510 96 552 97 20 1 37 -4 37 -10z m-1645
-57 c24 -21 78 -55 122 -76 190 -93 353 -137 543 -145 81 -4 134 -10 134 -16
-1 -5 -28 -18 -60 -28 -115 -36 -2377 -598 -2382 -592 -14 13 19 42 94 84 121
66 191 120 291 224 101 104 209 258 219 312 3 19 13 36 23 39 9 3 169 41 356
86 187 45 399 97 470 115 72 18 134 34 138 34 5 1 28 -16 52 -37z m815 -376
c0 -41 -49 -197 -89 -281 -189 -404 -597 -693 -1068 -756 -110 -15 -382 -6
-476 16 -252 56 -464 172 -638 346 -94 93 -120 132 -102 149 14 14 627 161
1726 414 249 57 481 111 517 119 36 8 80 16 98 16 27 1 32 -2 32 -23z m-408
-956 c43 -35 54 -75 38 -126 -10 -28 -22 -40 -55 -55 -73 -32 -730 -187 -835
-196 -47 -4 -59 -2 -84 18 -16 12 -35 38 -43 56 -13 31 -12 38 9 79 12 25 26
48 30 50 9 6 868 202 888 203 9 1 32 -13 52 -29z"/>
</g>
</svg>
